<svg xmlns="http://www.w3.org/2000/svg" viewBox="0 0 110.37 97.15"><defs><style>.cls-1{fill:#1fffd3;}.cls-1,.cls-2,.cls-3{stroke:#000;stroke-linecap:round;stroke-linejoin:round;}.cls-2{fill:#ffad3f;}.cls-3{fill:#ff6aa4;}.cls-4{fill:#fff;}.cls-5{fill:#ff0;}</style></defs><g id="Calque_2" data-name="Calque 2"><g id="LOGOS"><path class="cls-1" d="M79.75,92.19C76,95.88,69.72,98,64.68,95.75c-4.52-2-6.13-6.6-8.12-12.31A51.18,51.18,0,0,1,53.77,66a17.52,17.52,0,0,0,8.45-.54A18.74,18.74,0,0,0,70.6,59.6c3.22,1.74,10.82,6.73,12.76,16C83.8,77.68,85.62,86.36,79.75,92.19Z"/><path class="cls-2" d="M47.1,63.66c-.2,6.16-1.61,14.51-7,21.89-2.45,3.33-5.43,7.25-10.19,7.52-4.52.26-8.94-2.86-10.79-6.83-2.17-4.66-.26-9.36.91-12.21C24.13,63.9,33.82,58.77,39.17,56.57A21.22,21.22,0,0,0,47.1,63.66Z"/><path class="cls-3" d="M36.84,49.11c0,.13,0,.27,0,.4a61,61,0,0,1-21.12,2.15C7.25,51,4.8,48.93,3.64,47.65c-3-3.33-4.28-9.07-1.89-13,2.89-4.74,9.84-4.65,14-4.59,11.42.15,20,6.71,24.17,10.51A14.6,14.6,0,0,0,36.84,49.11Z"/><path class="cls-1" d="M55.56,32.45a1.34,1.34,0,0,0-.2,0,20,20,0,0,0-10.14,3.21c-3.17-3-5.74-5.72-7.67-7.85-7.13-7.88-8.09-10.69-8.5-12.35S27.18,7.9,30.57,3.92s10-4.14,14.3-2.2c5.58,2.51,7.42,8.49,9.15,14.1A41.62,41.62,0,0,1,55.56,32.45Z"/><path class="cls-2" d="M90.48,23.47a54.92,54.92,0,0,1-18.56,17,19.22,19.22,0,0,0-9.56-6.89c2.93-6.14,5-11.28,6.33-15,2.25-6.17,3-9.28,6.24-12.37.77-.72,7-6.6,13-4.24,5.3,2.08,6.31,9,6.38,9.52C94.74,14.52,94.05,18.05,90.48,23.47Z"/><path class="cls-3" d="M109.33,51.26c-1.66,5-6.82,7-9.64,8.05-10.26,3.94-21.08,0-26.95-2.88a15.47,15.47,0,0,0,1.8-9.35A15,15,0,0,0,74,44.63a61.28,61.28,0,0,1,22.64-6.34c5-.34,8.15.17,10.38,2.31C109.83,43.28,110.49,47.8,109.33,51.26Z"/><path class="cls-4" d="M57,66.73a20.71,20.71,0,0,1-3.3-.28,22.8,22.8,0,0,1-6.83-2.35,21.78,21.78,0,0,1-8.11-7.26,14.42,14.42,0,0,1-2.4-7.32c0-.13,0-.27,0-.41a15,15,0,0,1,3.14-8.82,20.69,20.69,0,0,1,5.47-5A20.43,20.43,0,0,1,55.35,32h.58a20.72,20.72,0,0,1,6.58,1.12,19.63,19.63,0,0,1,9.82,7.07,15.79,15.79,0,0,1,2.16,4.35A15.52,15.52,0,0,1,75,47a16,16,0,0,1-1.86,9.65A18.91,18.91,0,0,1,71,59.92a19.22,19.22,0,0,1-8.61,6,17.42,17.42,0,0,1-5.39.84ZM54.72,43.44a5.44,5.44,0,0,0-4.21,1.71,5.63,5.63,0,0,0-.92,5.71c1.1,2.63,4.35,3.83,6.9,3.83a6.49,6.49,0,0,0,4.08-1.26,5.28,5.28,0,0,0,1.82-3.55c.12-2.66-2.2-4.87-4.41-5.8A8.85,8.85,0,0,0,54.72,43.44Z"/><path d="M55.93,32.44a20.19,20.19,0,0,1,6.43,1.09,19.22,19.22,0,0,1,9.56,6.89,14.59,14.59,0,0,1,2.62,6.66,15.47,15.47,0,0,1-1.8,9.35A18.36,18.36,0,0,1,70.6,59.6a18.74,18.74,0,0,1-8.38,5.81,16.62,16.62,0,0,1-5.23.82A19.45,19.45,0,0,1,53.77,66a22.45,22.45,0,0,1-6.67-2.29,21.22,21.22,0,0,1-7.93-7.09,13.88,13.88,0,0,1-2.32-7.06c0-.13,0-.27,0-.4a14.6,14.6,0,0,1,3-8.52,20.58,20.58,0,0,1,15.48-8.14h.57m.56,22.75a7,7,0,0,0,4.4-1.37,5.83,5.83,0,0,0,2-3.92c.14-3-2.51-5.35-4.72-6.28a9.29,9.29,0,0,0-3.45-.68,5.94,5.94,0,0,0-4.59,1.88,6.13,6.13,0,0,0-1,6.23c1.11,2.67,4.34,4.14,7.36,4.14m-.56-23.75h-.6A21.56,21.56,0,0,0,39.08,40a15.48,15.48,0,0,0-3.24,9.11c0,.15,0,.29,0,.44a15.07,15.07,0,0,0,2.48,7.57,22.36,22.36,0,0,0,8.3,7.42,23.05,23.05,0,0,0,7,2.4,20.48,20.48,0,0,0,3.38.29,17.86,17.86,0,0,0,5.55-.87,19.75,19.75,0,0,0,8.83-6.12,19.38,19.38,0,0,0,2.25-3.34A16.45,16.45,0,0,0,75.53,47,15.56,15.56,0,0,0,75,44.34a16.44,16.44,0,0,0-2.23-4.5,20.26,20.26,0,0,0-10.07-7.26,21.38,21.38,0,0,0-6.74-1.14Zm.56,22.75c-2.39,0-5.43-1.1-6.44-3.52a5.14,5.14,0,0,1,.83-5.19,5,5,0,0,1,3.84-1.54,8.15,8.15,0,0,1,3.06.61c1.72.72,4.23,2.72,4.11,5.3A4.81,4.81,0,0,1,60.26,53a6,6,0,0,1-3.77,1.15Z"/><path class="cls-4" d="M56.49,55.69c-2.87,0-6.55-1.39-7.82-4.44a6.66,6.66,0,0,1,1.09-6.76,6.42,6.42,0,0,1,5-2.05,9.8,9.8,0,0,1,3.64.72c2.53,1.06,5.17,3.63,5,6.76a6.24,6.24,0,0,1-2.19,4.29A7.51,7.51,0,0,1,56.49,55.69Z"/><path d="M54.72,42.94a9.29,9.29,0,0,1,3.45.68c2.21.93,4.86,3.27,4.72,6.28a5.83,5.83,0,0,1-2,3.92,7,7,0,0,1-4.4,1.37c-3,0-6.25-1.47-7.36-4.14a6.13,6.13,0,0,1,1-6.23,5.94,5.94,0,0,1,4.59-1.88m0-1a6.87,6.87,0,0,0-5.34,2.22,7.11,7.11,0,0,0-1.18,7.28c1.38,3.28,5.16,4.75,8.29,4.75a8,8,0,0,0,5-1.59A6.78,6.78,0,0,0,63.88,50c.16-3.38-2.65-6.13-5.32-7.25a10.27,10.27,0,0,0-3.84-.76Z"/><path class="cls-5" d="M62.89,49.9a5.83,5.83,0,0,1-2,3.92c-3.24,2.62-10,1.36-11.76-2.77a6.13,6.13,0,0,1,1-6.23c2.17-2.47,5.87-2.1,8-1.2S63,46.89,62.89,49.9Z"/></g></g></svg>