<svg xmlns="http://www.w3.org/2000/svg" viewBox="0 0 102.96 173.83"><defs><style>.cls-1{fill:#1fffd3;}.cls-1,.cls-2{stroke:#000;stroke-linecap:round;stroke-linejoin:round;}.cls-2{fill:#ff0;}</style></defs><g id="Calque_2" data-name="Calque 2"><g id="LOGOS"><path class="cls-1" d="M45.65,40.5c7.82,9,14.51,16.89,17.82,29.35,5.46,20.55-2,39.61-4.19,45.08-7.94,19.59-18.09,22.49-16.78,33.55,1.44,12.11,15.44,24,27.26,23.07,17.93-1.37,28.53-31.89,31.45-49.28C109.18,75,77.84,21.9,36.21,5.9,19.57-.5,1.81-.76.57,2.75-.95,7.07,23.29,14.73,45.65,40.5Z"/><path class="cls-2" d="M44.92,147.94c0,.64,12.2-2.26,20.14,3.68,9,6.69,8.77,21.84,9.54,21.71s-3.87-13.65,1.83-21.55c5.91-8.19,21.77-6,21.73-6.79s-13.85,2.4-21.86-4.51c-7.12-6.14-6.63-17.64-8-17.48s2,12.51-4.17,19.33S44.9,147.28,44.92,147.94Z"/></g></g></svg>