<svg xmlns="http://www.w3.org/2000/svg" viewBox="0 0 1719.75 623.03"><defs><style>.cls-1{fill:#1fffd3;}.cls-1,.cls-2,.cls-3,.cls-7,.cls-8{stroke:#000;stroke-linecap:round;stroke-linejoin:round;}.cls-2{fill:#ffad3f;}.cls-3{fill:#ff6aa4;}.cls-4{fill:#fff;}.cls-5,.cls-7,.cls-8{fill:#ff0;}.cls-6{fill:none;}.cls-7{stroke-width:2px;}</style></defs><g id="Calque_2" data-name="Calque 2"><g id="LOGOS"><path class="cls-1" d="M1316,155c-3.72,3.69-10,5.76-15.07,3.56-4.53-2-6.14-6.6-8.12-12.31a50.93,50.93,0,0,1-2.79-17.49,17.77,17.77,0,0,0,8.45-.54,18.77,18.77,0,0,0,8.38-5.82c3.21,1.75,10.81,6.74,12.75,16C1320.09,140.5,1321.91,149.18,1316,155Z"/><path class="cls-2" d="M1283.38,126.49c-.2,6.16-1.61,14.51-7,21.89-2.45,3.33-5.42,7.25-10.19,7.52-4.51.26-8.93-2.87-10.78-6.83-2.18-4.66-.26-9.36.9-12.21,4.15-10.14,13.84-15.26,19.19-17.46A21.2,21.2,0,0,0,1283.38,126.49Z"/><path class="cls-3" d="M1273.13,111.94v.39a60.77,60.77,0,0,1-21.12,2.16c-8.47-.65-10.93-2.73-12.09-4-3-3.33-4.28-9.07-1.89-13,2.89-4.74,9.84-4.65,14-4.6,11.41.16,20,6.72,24.17,10.52A14.44,14.44,0,0,0,1273.13,111.94Z"/><path class="cls-1" d="M1291.84,95.27h-.19a20.09,20.09,0,0,0-10.15,3.22c-3.17-3-5.73-5.72-7.66-7.85-7.14-7.88-8.1-10.7-8.51-12.35-.44-1.8-1.86-7.56,1.52-11.54s10-4.15,14.31-2.2c5.57,2.51,7.41,8.48,9.14,14.09A41.46,41.46,0,0,1,1291.84,95.27Z"/><path class="cls-2" d="M1326.76,86.29a54.79,54.79,0,0,1-18.55,16.95,19.23,19.23,0,0,0-9.57-6.88c2.94-6.14,5-11.29,6.33-15,2.26-6.18,3-9.28,6.25-12.37.76-.72,7-6.61,13-4.25,5.31,2.09,6.31,9,6.39,9.53C1331,77.35,1330.34,80.88,1326.76,86.29Z"/><path class="cls-3" d="M1345.62,114.09c-1.67,5-6.82,7-9.64,8-10.26,4-21.09,0-27-2.87a15.48,15.48,0,0,0,1.81-9.35,14.79,14.79,0,0,0-.53-2.45,61.08,61.08,0,0,1,22.64-6.34c5-.35,8.14.17,10.37,2.3C1346.12,106.1,1346.77,110.63,1345.62,114.09Z"/><path class="cls-4" d="M1293.28,129.55a19.52,19.52,0,0,1-3.3-.28,22.68,22.68,0,0,1-6.83-2.34,21.78,21.78,0,0,1-8.11-7.26,14.43,14.43,0,0,1-2.41-7.32v-.41a14.9,14.9,0,0,1,3.14-8.82,20.81,20.81,0,0,1,5.46-5.05,20.57,20.57,0,0,1,10.4-3.3h.59a21,21,0,0,1,6.58,1.11,19.8,19.8,0,0,1,9.82,7.08,15.62,15.62,0,0,1,2.15,4.35,14.55,14.55,0,0,1,.55,2.54,15.93,15.93,0,0,1-1.86,9.64,18,18,0,0,1-2.19,3.25,19.24,19.24,0,0,1-8.6,6,17.18,17.18,0,0,1-5.39.84ZM1291,106.26a5.5,5.5,0,0,0-4.21,1.71,5.68,5.68,0,0,0-.92,5.72c1.1,2.63,4.35,3.83,6.91,3.83a6.49,6.49,0,0,0,4.08-1.26,5.25,5.25,0,0,0,1.81-3.56c.13-2.65-2.2-4.86-4.41-5.79A8.77,8.77,0,0,0,1291,106.26Z"/><path d="M1292.22,95.27a20.13,20.13,0,0,1,6.42,1.09,19.23,19.23,0,0,1,9.57,6.88,15.54,15.54,0,0,1,2.09,4.22,14.79,14.79,0,0,1,.53,2.45,15.48,15.48,0,0,1-1.81,9.35,17.86,17.86,0,0,1-2.13,3.16,18.77,18.77,0,0,1-8.38,5.82,16.66,16.66,0,0,1-5.23.81,19.35,19.35,0,0,1-3.22-.27,22.42,22.42,0,0,1-6.68-2.29,21.2,21.2,0,0,1-7.92-7.09,13.9,13.9,0,0,1-2.33-7.07v-.39a14.44,14.44,0,0,1,3-8.52,20.57,20.57,0,0,1,15.48-8.15h.57m.56,22.75a7,7,0,0,0,4.39-1.37,5.75,5.75,0,0,0,2-3.92c.14-3-2.51-5.35-4.71-6.28a9.38,9.38,0,0,0-3.46-.69,5.88,5.88,0,0,0-4.58,1.89,6.15,6.15,0,0,0-1,6.23c1.12,2.67,4.35,4.14,7.37,4.14m-.56-23.75h-.6A21.12,21.12,0,0,0,1281,97.64a21.34,21.34,0,0,0-5.59,5.18,15.37,15.37,0,0,0-3.24,9.12v.43a14.92,14.92,0,0,0,2.49,7.57,22.22,22.22,0,0,0,8.3,7.43,23.36,23.36,0,0,0,7,2.4,20.67,20.67,0,0,0,3.39.28,17.79,17.79,0,0,0,5.54-.86,19.75,19.75,0,0,0,8.84-6.13,18.64,18.64,0,0,0,2.25-3.34,16.06,16.06,0,0,0,1.34-12.56,16.21,16.21,0,0,0-2.22-4.49A20.24,20.24,0,0,0,1299,95.41a21.15,21.15,0,0,0-6.74-1.14Zm.56,22.75c-2.4,0-5.43-1.11-6.45-3.53a5.15,5.15,0,0,1,.84-5.19,5,5,0,0,1,3.83-1.54,8.44,8.44,0,0,1,3.07.61c1.72.72,4.22,2.73,4.1,5.31a4.82,4.82,0,0,1-1.62,3.19,6,6,0,0,1-3.77,1.15Z"/><path class="cls-4" d="M1292.78,118.52c-2.88,0-6.55-1.39-7.83-4.45a6.67,6.67,0,0,1,1.09-6.75,6.44,6.44,0,0,1,5-2.06,9.66,9.66,0,0,1,3.65.73c2.52,1.06,5.17,3.63,5,6.76a6.17,6.17,0,0,1-2.18,4.28A7.45,7.45,0,0,1,1292.78,118.52Z"/><path d="M1291,105.76a9.38,9.38,0,0,1,3.46.69c2.2.93,4.85,3.27,4.71,6.28a5.75,5.75,0,0,1-2,3.92,7,7,0,0,1-4.39,1.37c-3,0-6.25-1.47-7.37-4.14a6.15,6.15,0,0,1,1-6.23,5.88,5.88,0,0,1,4.58-1.89m0-1a6.85,6.85,0,0,0-5.33,2.22,7.11,7.11,0,0,0-1.18,7.29c1.37,3.28,5.15,4.75,8.29,4.75a8,8,0,0,0,5-1.6,6.74,6.74,0,0,0,2.37-4.64c.16-3.38-2.65-6.13-5.33-7.25a10.24,10.24,0,0,0-3.84-.77Z"/><path class="cls-5" d="M1299.17,112.73a5.75,5.75,0,0,1-2,3.92c-3.24,2.62-10,1.36-11.76-2.77a6.15,6.15,0,0,1,1-6.23c2.17-2.47,5.87-2.1,8-1.2S1299.31,109.72,1299.17,112.73Z"/><path class="cls-1" d="M240.67,92.9c-.62,1.51-3.2,7.75-9.4,8.9-3.92.73-8.78-.68-11-4.22-2-3.19-1-6.78.16-11.22a38.91,38.91,0,0,1,5.76-12.2,13.38,13.38,0,0,0,5.54,3.28,14.35,14.35,0,0,0,7.77-.06C240.77,79.86,243.41,86.26,240.67,92.9Z"/><path class="cls-2" d="M223,69.86A29.53,29.53,0,0,1,209.17,80.6c-3,1-6.53,2.24-9.64.36A9,9,0,0,1,195.68,72c.63-3.87,3.85-6,5.81-7.28,6.95-4.6,15.24-3.66,19.55-2.76A16.08,16.08,0,0,0,223,69.86Z"/><path class="cls-3" d="M228.35,52.26a11.06,11.06,0,0,0-5.58,4.05c-.06.09-.12.17-.17.26a46.65,46.65,0,0,1-14.2-7.71c-5.05-4-5.7-6.41-5.88-7.71-.46-3.39,1.2-7.54,4.38-9,3.85-1.74,8.18,1.3,10.75,3.1C224.77,40.28,227.36,48.1,228.35,52.26Z"/><path class="cls-1" d="M247.85,42.74a31.72,31.72,0,0,1-6.16,11.13l-.13-.09a15.26,15.26,0,0,0-7.75-2.33c-.7-3.26-1.15-6.05-1.45-8.23-1.11-8-.51-10.19-.05-11.41s2.07-5.55,5.9-6.6,8.06,1.67,9.94,4.75C250.58,33.93,249.17,38.48,247.85,42.74Z"/><path class="cls-2" d="M275.08,57.28c-1.07,2.12-3,4-7.59,5.92a41.87,41.87,0,0,1-18.93,2.7,14.65,14.65,0,0,0-3.07-8.44c4.49-2.6,8-5,10.43-6.72,4.06-2.92,5.84-4.56,9.23-5.1.79-.13,7.24-1.15,10,2.91C277.6,52.14,275.27,56.9,275.08,57.28Z"/><path class="cls-3" d="M267.43,88.76c-3.18,2.42-7.28,1.45-9.51.93-8.16-1.93-13.26-9.06-15.72-13.38a11.74,11.74,0,0,0,5.15-5.1,11.09,11.09,0,0,0,.71-1.77A46.42,46.42,0,0,1,265,75.16c3.32,1.94,5.06,3.61,5.55,5.91A8.07,8.07,0,0,1,267.43,88.76Z"/><path class="cls-4" d="M235.45,78.45a13.41,13.41,0,0,1-9.6-3.93,17.6,17.6,0,0,1-3.32-4.43,16.67,16.67,0,0,1-2-8.1,11.11,11.11,0,0,1,1.64-5.69l.13-.21a11.53,11.53,0,0,1,5.87-4.3,15.68,15.68,0,0,1,5.18-.85h.47a15.59,15.59,0,0,1,8,2.41.93.93,0,0,1,.18.13,15.64,15.64,0,0,1,3.88,3.67,15.1,15.1,0,0,1,3.17,8.73,11.7,11.7,0,0,1-.52,3.7,12.4,12.4,0,0,1-.74,1.84,12.22,12.22,0,0,1-5.37,5.32,14.52,14.52,0,0,1-2.79,1.12A15.58,15.58,0,0,1,235.45,78.45ZM234,59.69a3.17,3.17,0,0,0-.86.11,4.2,4.2,0,0,0-2.94,3.1,4.8,4.8,0,0,0,1.2,3.91,5.85,5.85,0,0,0,4.2,2.29h.28a3.9,3.9,0,0,0,2.58-1.41c1.18-1.57.68-3.9-.3-5.4A5.41,5.41,0,0,0,234,59.69Z"/><path d="M233.36,51.44h.45a15.26,15.26,0,0,1,7.75,2.33l.13.09a15,15,0,0,1,3.8,3.59,14.65,14.65,0,0,1,3.07,8.44,11.4,11.4,0,0,1-1.21,5.31,11.74,11.74,0,0,1-5.15,5.1,14.1,14.1,0,0,1-2.69,1.07,14.9,14.9,0,0,1-4.06.57,12.9,12.9,0,0,1-9.25-3.79,17,17,0,0,1-3.22-4.3A16.08,16.08,0,0,1,221,62a10.57,10.57,0,0,1,1.56-5.43c.05-.09.11-.17.17-.26a11.06,11.06,0,0,1,5.58-4.05,15.13,15.13,0,0,1,5-.82m2.19,18.16.33,0a4.34,4.34,0,0,0,2.93-1.6c1.38-1.83.72-4.44-.28-6A5.91,5.91,0,0,0,234,59.19a4.17,4.17,0,0,0-1,.12,4.72,4.72,0,0,0-3.31,3.49c-.66,3.23,2.8,6.8,5.89,6.8m-2.19-19.16a16.18,16.18,0,0,0-5.35.88A11.86,11.86,0,0,0,222,55.75l0,.07c-.06.08-.11.16-.16.24A11.59,11.59,0,0,0,220,62a17.17,17.17,0,0,0,2.05,8.34,17.83,17.83,0,0,0,3.41,4.56,14.39,14.39,0,0,0,6,3.52,14,14,0,0,0,4,.55,15.88,15.88,0,0,0,4.33-.6,15.18,15.18,0,0,0,2.89-1.16,12.72,12.72,0,0,0,5.57-5.53,12.56,12.56,0,0,0,.78-1.93,12.32,12.32,0,0,0,.54-3.85,15.68,15.68,0,0,0-3.27-9,16.09,16.09,0,0,0-4-3.8l-.13-.1a16.27,16.27,0,0,0-8.3-2.51Zm2.19,18.16a5.34,5.34,0,0,1-3.81-2.1,4.34,4.34,0,0,1-1.1-3.5,3.72,3.72,0,0,1,2.58-2.72,3,3,0,0,1,.73-.09,4.92,4.92,0,0,1,3.74,2.36c.74,1.14,1.43,3.36.32,4.83a3.4,3.4,0,0,1-2.2,1.21Z"/><path class="cls-4" d="M235.55,70.1a6.81,6.81,0,0,1-5-2.65,5.84,5.84,0,0,1-1.4-4.75,5.22,5.22,0,0,1,3.68-3.87,4.54,4.54,0,0,1,1.1-.14,6.35,6.35,0,0,1,5,3.05c1.16,1.78,1.73,4.58.26,6.54a4.9,4.9,0,0,1-3.3,1.8Z"/><path d="M234,59.19A5.91,5.91,0,0,1,238.53,62c1,1.53,1.66,4.14.28,6a4.34,4.34,0,0,1-2.93,1.6l-.33,0c-3.09,0-6.55-3.57-5.89-6.8A4.72,4.72,0,0,1,233,59.31a4.17,4.17,0,0,1,1-.12m0-1h0a5.17,5.17,0,0,0-1.23.15,5.7,5.7,0,0,0-4,4.26,6.28,6.28,0,0,0,1.51,5.16,7.28,7.28,0,0,0,5.36,2.84l.41,0h0a5.45,5.45,0,0,0,3.65-2c1.62-2.16,1-5.2-.24-7.12A6.88,6.88,0,0,0,234,58.19Z"/><path class="cls-5" d="M238.81,68a4.34,4.34,0,0,1-2.93,1.6c-3.17.27-6.9-3.44-6.22-6.78A4.72,4.72,0,0,1,233,59.31c2.42-.61,4.6,1.2,5.56,2.7S240.19,66.15,238.81,68Z"/><path class="cls-1" d="M1480.83,360.77a45.24,45.24,0,0,1-4.75,15,15.6,15.6,0,0,0-6.9-2.94,16.68,16.68,0,0,0-8.94,1.28c-1.85-2.66-5.88-9.63-3.75-17.72.49-1.84,2.5-9.43,9.46-11.71,4.41-1.45,10.23-.58,13.34,3.17C1482.08,351.17,1481.52,355.46,1480.83,360.77Z"/><path class="cls-2" d="M1511.59,373.46c-.12,4.55-3.51,7.49-5.56,9.29-7.32,6.38-17,6.58-22.13,6.2a18.7,18.7,0,0,0-3.45-8.76c2.6-4.79,7-10.85,14.27-14.52,3.26-1.67,7.18-3.59,11-1.91C1509.45,365.35,1511.7,369.58,1511.59,373.46Z"/><path class="cls-3" d="M1504.83,421.15c-4.18,2.61-9.65-.24-12.88-1.91-9-4.67-13.18-13.29-15-17.94a12.79,12.79,0,0,0,5.8-5.52c0-.11.1-.21.14-.32a54,54,0,0,1,17.58,6.68c6.45,3.89,7.57,6.51,8,8C1509.54,414,1508.27,419,1504.83,421.15Z"/><path class="cls-1" d="M1475.58,425.5c-.36,1.59-1.53,6.73-5.78,8.52s-9.55-.68-12.2-3.94c-3.41-4.2-2.5-9.66-1.63-14.79a36.72,36.72,0,0,1,5.38-13.76l.16.08a17.7,17.7,0,0,0,9.3,1.48c1.32,3.64,2.27,6.79,3,9.26C1476.28,421.42,1475.92,424,1475.58,425.5Z"/><path class="cls-2" d="M1456.42,398c-4.77,3.69-8.42,6.95-11,9.36-4.23,4-6,6.16-9.85,7.31-.9.26-8.18,2.43-12-1.81-3.37-3.77-1.42-9.62-1.27-10.08.91-2.61,2.85-5.13,7.83-8a48.47,48.47,0,0,1,21.43-6A17,17,0,0,0,1456.42,398Z"/><path class="cls-3" d="M1457.29,375.72a13.72,13.72,0,0,0-5.14,6.68,12.92,12.92,0,0,0-.55,2.16,54.31,54.31,0,0,1-20.43-4c-4.12-1.73-6.39-3.37-7.31-5.95a9.38,9.38,0,0,1,2.42-9.35c3.3-3.28,8.16-2.8,10.83-2.54C1446.8,363.69,1453.79,371.11,1457.29,375.72Z"/><path class="cls-4" d="M1468.82,394.73a7.72,7.72,0,0,1-5.46-2.76c-1.59-1.85-2.68-5-1.3-7.41a5.57,5.57,0,0,1,3.47-2.55,5.22,5.22,0,0,1,1.13-.12,8.28,8.28,0,0,1,5.77,2.73,6.45,6.45,0,0,1,1.91,4.77,6,6,0,0,1-3.59,5A5.06,5.06,0,0,1,1468.82,394.73Z"/><path d="M1466.66,382.39c3.43,0,7.43,3.38,7.18,7a5.43,5.43,0,0,1-3.28,4.53,4.49,4.49,0,0,1-1.74.34,7.2,7.2,0,0,1-5.08-2.58c-1.39-1.62-2.55-4.52-1.25-6.85a5.09,5.09,0,0,1,3.14-2.3,4.45,4.45,0,0,1,1-.11m0-1h0a5.61,5.61,0,0,0-1.24.13,6.17,6.17,0,0,0-3.8,2.79c-1.49,2.66-.34,6,1.36,8a8.24,8.24,0,0,0,5.84,2.93,5.67,5.67,0,0,0,2.12-.41,6.49,6.49,0,0,0,3.9-5.39,7,7,0,0,0-2-5.16,8.79,8.79,0,0,0-6.13-2.88Z"/><path class="cls-4" d="M1468.85,403.69a17.93,17.93,0,0,1-7.55-1.63l.12-.5-.21.45a18.38,18.38,0,0,1-5.15-3.69,17.41,17.41,0,0,1-5-9.53,13.61,13.61,0,0,1,0-4.32,12.92,12.92,0,0,1,.58-2.24,14.21,14.21,0,0,1,5.33-6.92,16.28,16.28,0,0,1,3-1.7,17.49,17.49,0,0,1,7-1.48,15.08,15.08,0,0,1,2.25.17,16,16,0,0,1,7.12,3,20.06,20.06,0,0,1,4.47,4.58,19.26,19.26,0,0,1,3.55,9,12.66,12.66,0,0,1-1,6.77c0,.1-.1.21-.16.33a13.22,13.22,0,0,1-6,5.75,18.19,18.19,0,0,1-6.36,1.83,16.81,16.81,0,0,1-2,.11Zm-2.19-20.8a4.21,4.21,0,0,0-3.73,2.16c-1.14,2-.18,4.67,1.19,6.27a6.69,6.69,0,0,0,4.7,2.41,4.16,4.16,0,0,0,1.56-.3,4.92,4.92,0,0,0,3-4.11,5.4,5.4,0,0,0-1.65-4A7.22,7.22,0,0,0,1466.66,382.89Z"/><path d="M1467,372.63a15.39,15.39,0,0,1,2.17.16,15.6,15.6,0,0,1,6.9,2.94,19.48,19.48,0,0,1,4.37,4.46,18.7,18.7,0,0,1,3.45,8.76,12.08,12.08,0,0,1-1,6.51c0,.11-.09.21-.14.32a12.79,12.79,0,0,1-5.8,5.52,17.61,17.61,0,0,1-6.18,1.79,18.25,18.25,0,0,1-2,.1,17.54,17.54,0,0,1-7.34-1.58l-.16-.08a17.9,17.9,0,0,1-4.93-3.56,17,17,0,0,1-4.84-9.25,13.2,13.2,0,0,1,0-4.16,12.92,12.92,0,0,1,.55-2.16,13.72,13.72,0,0,1,5.14-6.68,15.55,15.55,0,0,1,3-1.65,17.06,17.06,0,0,1,6.77-1.44m1.81,21.6a4.49,4.49,0,0,0,1.74-.34,5.43,5.43,0,0,0,3.28-4.53c.25-3.59-3.75-7-7.18-7a4.45,4.45,0,0,0-1,.11,5.09,5.09,0,0,0-3.14,2.3c-1.3,2.33-.14,5.23,1.25,6.85a7.2,7.2,0,0,0,5.08,2.58m-1.81-22.6a18.1,18.1,0,0,0-7.17,1.52,16.8,16.8,0,0,0-3.13,1.76,14.64,14.64,0,0,0-5.5,7.16,13.61,13.61,0,0,0-.6,2.32,14.32,14.32,0,0,0,0,4.48,18,18,0,0,0,5.11,9.8,19,19,0,0,0,5.22,3.76l.09.05.06,0a18.48,18.48,0,0,0,7.78,1.69,20.5,20.5,0,0,0,2.07-.11,18.48,18.48,0,0,0,6.52-1.89,13.69,13.69,0,0,0,6.24-6c.06-.13.12-.25.17-.37a13.29,13.29,0,0,0,1.05-7,19.77,19.77,0,0,0-3.64-9.23,20.26,20.26,0,0,0-4.59-4.69,16.54,16.54,0,0,0-7.34-3.12,16,16,0,0,0-2.32-.17Zm1.81,21.6a6.23,6.23,0,0,1-4.32-2.23c-1.06-1.23-2.22-3.76-1.13-5.71a4.1,4.1,0,0,1,2.48-1.82,4.2,4.2,0,0,1,.81-.08h0a6.85,6.85,0,0,1,4.67,2.25,4.93,4.93,0,0,1,1.51,3.65,4.43,4.43,0,0,1-2.65,3.68,3.71,3.71,0,0,1-1.37.26Z"/><path class="cls-5" d="M1473.84,389.36a5.43,5.43,0,0,1-3.28,4.53c-2.69,1.09-5.48-.67-6.82-2.24s-2.55-4.52-1.25-6.85a5.09,5.09,0,0,1,3.14-2.3C1469.24,381.7,1474.11,385.41,1473.84,389.36Z"/><path class="cls-1" d="M387.88,433.55c.08,4.95-2.65,10.6-7.45,12.59-4.32,1.78-8.51-.14-13.7-2.53A48.49,48.49,0,0,1,353,434a16.61,16.61,0,0,0,5.18-6.11,17.85,17.85,0,0,0,1.54-9.52c3.3-1,11.66-2.94,19.23,1.79C380.65,421.27,387.76,425.72,387.88,433.55Z"/><path class="cls-2" d="M355.8,468.09c-2.79,3.25-7.82,4.22-11.73,2.87-4.6-1.57-6.54-5.95-7.72-8.62-4.18-9.45-1.32-19.42.68-24.5a20,20,0,0,0,10-.76c4.06,4.17,8.82,10.61,10.29,19.15C358,460.08,358.73,464.68,355.8,468.09Z"/><path class="cls-3" d="M330.7,434.79a57.81,57.81,0,0,1-12.37,15.8c-6,5.35-9,5.66-10.66,5.61-4.24-.14-9-3-10.08-7.22-1.33-5.08,3.28-9.75,6-12.52,7.6-7.68,17.7-9.23,23-9.57a13.81,13.81,0,0,0,3.81,7.65Z"/><path class="cls-1" d="M331.33,410.87l-.12.13a19,19,0,0,0-4.45,9c-4.13.18-7.65.16-10.38.08-10-.31-12.58-1.5-14-2.31s-6.37-3.68-6.86-8.59,3.72-9.52,7.87-11.18c5.37-2.15,10.64.51,15.59,3A39.06,39.06,0,0,1,331.33,410.87Z"/><path class="cls-2" d="M347.49,405a18.15,18.15,0,0,0-11,2c-2.25-6-4.43-10.78-6.07-14.15-2.73-5.58-4.38-8.09-4.34-12.36,0-1,.1-9.1,5.64-11.64,4.9-2.25,10.26,1.59,10.67,1.9,2.37,1.74,4.33,4.52,5.68,10.5A52,52,0,0,1,347.49,405Z"/><path class="cls-3" d="M378.56,398.42c-4.05,9.57-13.82,14.35-19.62,16.47a14.73,14.73,0,0,0-5.19-7.36,14.24,14.24,0,0,0-2-1.24,57.47,57.47,0,0,1,10.52-19.57c3.06-3.65,5.45-5.44,8.37-5.56,3.66-.16,7.17,2.36,8.78,5.42C381.69,391,379.66,395.78,378.56,398.42Z"/><path class="cls-4" d="M340.47,438.67a18.38,18.38,0,0,1-3.53-.34,13.45,13.45,0,0,1-6.58-3.17l-.28-.26a14.18,14.18,0,0,1-4-7.93,20,20,0,0,1,4.72-16.3l.07-.08a19.62,19.62,0,0,1,5.39-4.08,19.27,19.27,0,0,1,8.81-2.24,16.66,16.66,0,0,1,2.46.19,14.64,14.64,0,0,1,4.31,1.36l.11.05a14.26,14.26,0,0,1,2.05,1.26,15.17,15.17,0,0,1,5.37,7.6,18.51,18.51,0,0,1-.8,13.42,17.23,17.23,0,0,1-5.33,6.29,21.41,21.41,0,0,1-6.07,3.12,21.92,21.92,0,0,1-6.74,1.11ZM344,416.25a7.9,7.9,0,0,0-3.09.63c-1.54.67-4.4,2.74-4.15,5.76A5.29,5.29,0,0,0,340,427a5,5,0,0,0,1.73.31c3.3,0,6.92-3.07,7.18-6.09a4.94,4.94,0,0,0-1.22-3.53A5,5,0,0,0,344,416.25Z"/><path d="M345.11,404.77a15.79,15.79,0,0,1,2.38.18,14,14,0,0,1,4.23,1.34h0a14.24,14.24,0,0,1,2,1.24,14.73,14.73,0,0,1,5.19,7.36,18.41,18.41,0,0,1,.76,3.52,17.83,17.83,0,0,1-1.54,9.52A16.61,16.61,0,0,1,353,434a20.76,20.76,0,0,1-5.92,3,21,21,0,0,1-6.59,1.09,17.76,17.76,0,0,1-3.44-.33,13.07,13.07,0,0,1-6.33-3l-.28-.25a13.81,13.81,0,0,1-3.81-7.65,19.17,19.17,0,0,1,.15-6.87,19,19,0,0,1,4.45-9l.12-.13a19.13,19.13,0,0,1,5.2-3.92,18.77,18.77,0,0,1,8.58-2.18m-3.4,23c3.56,0,7.39-3.23,7.68-6.55a5.06,5.06,0,0,0-5.44-5.49,8.54,8.54,0,0,0-3.29.67c-2,.88-4.71,3.16-4.45,6.26a5.79,5.79,0,0,0,3.59,4.76,5.21,5.21,0,0,0,1.91.35m3.4-24h0a19.84,19.84,0,0,0-9,2.29,20.11,20.11,0,0,0-5.47,4.13l-.06.06-.08.09a20.53,20.53,0,0,0-4.83,16.71,14.65,14.65,0,0,0,4.1,8.21q.16.17.33.3a14.08,14.08,0,0,0,6.78,3.26,18.7,18.7,0,0,0,3.63.35,22.66,22.66,0,0,0,13.11-4.32,17.86,17.86,0,0,0,5.48-6.48,18.86,18.86,0,0,0,1.63-10.07,18.38,18.38,0,0,0-.8-3.72,15.69,15.69,0,0,0-5.55-7.85,14.46,14.46,0,0,0-2.1-1.3l-.16-.08a15.42,15.42,0,0,0-4.44-1.39,17.51,17.51,0,0,0-2.53-.19Zm-3.4,23a4.18,4.18,0,0,1-1.55-.28,4.8,4.8,0,0,1-3-3.92c-.22-2.73,2.43-4.63,3.86-5.25a7.47,7.47,0,0,1,2.89-.59A4.52,4.52,0,0,1,347.3,418a4.44,4.44,0,0,1,1.09,3.14c-.24,2.8-3.61,5.64-6.68,5.64Z"/><path class="cls-4" d="M341.71,428.29a5.79,5.79,0,0,1-2.09-.38,6.34,6.34,0,0,1-3.91-5.19c-.3-3.58,2.85-5.93,4.75-6.76a9,9,0,0,1,3.49-.71,6,6,0,0,1,4.44,1.73,5.92,5.92,0,0,1,1.49,4.31C349.58,424.82,345.54,428.29,341.71,428.29Z"/><path d="M344,415.75a5.06,5.06,0,0,1,5.44,5.49c-.29,3.32-4.12,6.55-7.68,6.55a5.21,5.21,0,0,1-1.91-.35,5.79,5.79,0,0,1-3.59-4.76c-.26-3.1,2.42-5.38,4.45-6.26a8.54,8.54,0,0,1,3.29-.67m0-1h0a9.47,9.47,0,0,0-3.69.75c-2.71,1.18-5.33,3.88-5.05,7.26a6.89,6.89,0,0,0,4.23,5.62,6.35,6.35,0,0,0,2.27.41c4.13,0,8.35-3.63,8.67-7.46a6.05,6.05,0,0,0-6.43-6.58Z"/><path class="cls-5" d="M349.39,421.24c-.34,3.93-5.65,7.73-9.59,6.2a5.79,5.79,0,0,1-3.59-4.76c-.26-3.1,2.42-5.38,4.45-6.26s5.41-1.17,7.37.9A5.47,5.47,0,0,1,349.39,421.24Z"/><rect class="cls-6" x="1692.49" width="27.26" height="97.6" transform="translate(3412.24 97.6) rotate(180)"/><rect class="cls-6" y="525.44" width="27.26" height="97.6" transform="translate(27.26 1148.47) rotate(180)"/><path class="cls-1" d="M1472.84,63.59c7.82,9,14.51,16.9,17.82,29.36,5.46,20.55-2,39.61-4.19,45.08-7.94,19.59-18.09,22.49-16.78,33.55,1.44,12.11,15.44,24,27.26,23.06,17.93-1.36,28.53-31.88,31.45-49.27C1536.37,98.1,1505,45,1463.4,29c-16.64-6.4-34.4-6.66-35.64-3.15C1426.24,30.16,1450.48,37.83,1472.84,63.59Z"/><path class="cls-2" d="M203.46,287c-20.81-17.12-58.11-22.15-78.63-9.07-25.71,16.38-18.75,57.15-32.25,58.46-9.3.91-19.88-17.7-23.19-33.26-5.85-27.48,7.67-60.91,33.27-75.61,41.89-24.06,98.68,12.09,112.9,45.37,3.51,8.2,7.79,24.12,4,26.2C216.62,300.71,210.48,292.74,203.46,287Z"/><path class="cls-3" d="M1206,488.18c18.56,2.82,55.48,8.42,77.81-9.47,28.4-22.76,18.32-71.64,23.68-71.71,5.06-.07,21.07,43.5,1.35,81.18-1.41,2.69-20.81,38.34-59.54,43.3-52.26,6.7-92.52-48.53-88.62-54.8C1162.7,473.46,1176,483.63,1206,488.18Z"/><path class="cls-7" d="M164.7,259.19c-.15-.8,15.63-.64,23.72-10.17,9.12-10.73,4.67-29.3,5.65-29.36s-.93,17.87,8.28,26c9.56,8.41,28.43,1.25,28.61,2.26s-17.69.93-25.6,11.67c-7,9.54-3.2,23.53-4.89,23.71s-1.06-15.93-10.54-22.58S164.86,260,164.7,259.19Z"/><path class="cls-7" d="M1188.85,520.55c0,.53,10-1.85,16.48,3,7.33,5.49,7.19,17.89,7.82,17.78s-3.17-11.18,1.49-17.64c4.84-6.71,17.82-4.9,17.79-5.56s-11.34,2-17.89-3.69c-5.83-5-5.43-14.45-6.53-14.32s1.63,10.24-3.41,15.83S1188.83,520,1188.85,520.55Z"/><path class="cls-8" d="M1472.11,171c0,.64,12.2-2.26,20.14,3.67,9,6.7,8.77,21.85,9.54,21.72s-3.87-13.66,1.83-21.55c5.91-8.19,21.77-6,21.73-6.79s-13.85,2.39-21.86-4.51c-7.12-6.15-6.62-17.64-8-17.48s2,12.5-4.17,19.32S1472.09,170.38,1472.11,171Z"/></g></g></svg>