<svg xmlns="http://www.w3.org/2000/svg" viewBox="0 0 1719.75 623.03"><defs><style>.cls-1{fill:#1fffd3;}.cls-1,.cls-2,.cls-3,.cls-8,.cls-9{stroke:#000;stroke-linecap:round;stroke-linejoin:round;}.cls-1,.cls-2,.cls-3,.cls-4,.cls-6,.cls-7,.cls-8,.cls-9{opacity:0.7;}.cls-2{fill:#ffad3f;}.cls-3{fill:#ff6aa4;}.cls-5{fill:#fff;}.cls-6,.cls-8,.cls-9{fill:#ff0;}.cls-7{fill:none;}.cls-8{stroke-width:2px;}</style></defs><g id="Calque_2" data-name="Calque 2"><g id="LOGOS"><path class="cls-1" d="M1269.05,174.51c2.78,1.29,22.29,10.76,26.68,31.6.84,4,4.31,20.52-6.87,31.62-7.07,7-19.08,11-28.65,6.77-8.61-3.77-11.67-12.55-15.45-23.42a98.89,98.89,0,0,1-4.93-41.31"/><path class="cls-2" d="M1226.7,175.7c.54,11.59-.48,31.92-13.33,49.39-4.66,6.34-10.33,13.8-19.38,14.31-8.59.49-17-5.45-20.52-13-4.14-8.87-.49-17.8,1.73-23.22,9.23-22.59,33-32.1,40.91-34.89"/><path class="cls-3" d="M1211,155.44a117.43,117.43,0,0,1-44,5.21c-16.13-1.25-20.8-5.2-23-7.64-5.73-6.34-8.13-17.25-3.6-24.69,5.5-9,18.73-8.84,26.57-8.73,22.27.3,38.9,13.42,46.56,20.53"/><path class="cls-1" d="M1227.05,133.81c-7.85-7.18-14-13.63-18.46-18.54-13.56-15-15.38-20.34-16.16-23.49-.84-3.41-3.55-14.38,2.89-21.94s19-7.89,27.21-4.19c10.6,4.78,14.1,16.14,17.38,26.81a80,80,0,0,1,2.25,36.83"/><path class="cls-2" d="M1253,131.8a328.4,328.4,0,0,0,14.81-34.19c4.29-11.74,5.64-17.66,11.88-23.54,1.46-1.37,13.33-12.56,24.76-8.07,10.09,4,12,17.08,12.14,18.12.77,5.88-.54,12.59-7.33,22.89-12.12,18.37-29.47,29.65-42.8,36.27"/><path class="cls-3" d="M1271,150.87c21.86-12.07,39.63-14.94,50-15.66,9.57-.66,15.51.32,19.75,4.38,5.33,5.1,6.58,13.71,4.38,20.29-3.16,9.47-13,13.24-18.33,15.3-24.4,9.37-50.45-4.69-57.7-8.91"/><g class="cls-4"><path class="cls-5" d="M1245.58,188.84a42.61,42.61,0,0,1-29.42-12.55c-6.08-6.09-9.42-13.37-9.41-20.5,0-16.32,17-31.66,35.71-32.2l1,0a40.2,40.2,0,0,1,23.12,7.57c7.24,5.27,11.81,12.63,12.86,20.72a31.15,31.15,0,0,1-6,22.21,36.74,36.74,0,0,1-17.72,13.2,32.38,32.38,0,0,1-10.09,1.57Z"/><path d="M1243.48,124.07c15.78,0,33.24,10.65,35.48,27.86,2.09,16.13-10.19,30.51-23.44,34.86a31.72,31.72,0,0,1-9.94,1.55c-18.88,0-38.35-15.38-38.33-32.55,0-16,16.89-31.17,35.22-31.7l1,0m0-1-1,0c-18.92.55-36.17,16.13-36.19,32.7,0,7.27,3.38,14.68,9.55,20.85a43.16,43.16,0,0,0,29.78,12.7,32.73,32.73,0,0,0,10.25-1.6,37.12,37.12,0,0,0,18-13.38A31.54,31.54,0,0,0,1280,151.8c-1.07-8.23-5.71-15.71-13.07-21.06a40.7,40.7,0,0,0-23.4-7.67Z"/></g><path class="cls-6" d="M1253,164.74a11,11,0,0,0,3.79-7.45c.28-5.72-4.76-10.18-9-11.94s-11.15-2.42-15.28,2.27a11.72,11.72,0,0,0-1.91,11.87C1233.9,167.33,1246.83,169.73,1253,164.74Z"/><path class="cls-1" d="M434.63,151.51c.86,1.45,6.75,11.74,2.31,22.51-.85,2.06-4.37,10.59-12.84,12.16-5.36,1-12-.93-15-5.77-2.72-4.36-1.4-9.26.24-15.34a54.05,54.05,0,0,1,10.51-20.18"/><path class="cls-2" d="M415.13,139c-3.33,5.41-10.05,14.28-21.24,18.21-4.07,1.43-8.92,3-13.17.49-4-2.43-6-7.71-5.27-12.19.87-5.28,5.27-8.19,7.94-10,11.13-7.36,24.78-4.34,29.24-3.16"/><path class="cls-3" d="M414.3,125a64.08,64.08,0,0,1-21.46-11.19c-6.9-5.53-7.8-8.76-8-10.54-.63-4.63,1.64-10.3,6-12.26,5.27-2.38,11.19,1.78,14.7,4.24,10,7,13.44,18,14.71,23.63"/><path class="cls-1" d="M428.2,120.19c-1.34-5.67-2.13-10.48-2.63-14.07-1.5-11-.68-13.93-.06-15.59s2.83-7.59,8.07-9,11,2.29,13.58,6.49c3.32,5.43,1.4,11.64-.41,17.47a43.78,43.78,0,0,1-10.33,17.33"/><path class="cls-2" d="M440.54,127.28a178.73,178.73,0,0,0,17.23-10.89c5.56-4,8-6.23,12.62-7,1.09-.17,9.9-1.56,13.68,4,3.33,4.9.15,11.42-.11,11.93-1.46,2.89-4.11,5.52-10.36,8.08-11.13,4.56-22.45,4.31-30.51,3.19"/><path class="cls-3" d="M442.78,141.43c13.6,1.28,22.51,5.46,27.43,8.35,4.53,2.65,6.91,4.92,7.57,8.06.84,3.94-1.25,8.22-4.27,10.52-4.35,3.3-9.94,2-13,1.26-13.91-3.29-21.35-17.67-23.32-21.81"/><g class="cls-4"><path class="cls-5" d="M429.8,154.09a18.9,18.9,0,0,1-5.21-.71c-6-1.74-11.24-7-13.66-13.78-2.1-5.83-1.67-11.77,1.14-15.87,2.94-4.31,8.49-6.88,14.84-6.88a21.59,21.59,0,0,1,11.52,3.28c7.44,4.76,12.64,15.47,8.08,24.46C443.58,150.36,437,154.09,429.8,154.09Z"/><path d="M426.91,117.35a21,21,0,0,1,11.25,3.2c7.39,4.73,12.29,15.18,7.9,23.82-3.15,6.21-9.95,9.22-16.26,9.22a18.32,18.32,0,0,1-5.07-.69c-11.75-3.4-18.5-19.75-12.25-28.89,3-4.32,8.58-6.66,14.43-6.66m0-1c-6.51,0-12.22,2.66-15.26,7.1s-3.37,10.24-1.19,16.32c2.48,6.91,7.84,12.31,14,14.09a19.48,19.48,0,0,0,5.35.73c7.41,0,14.14-3.84,17.15-9.77,4.7-9.24-.63-20.23-8.25-25.11a22,22,0,0,0-11.79-3.36Z"/></g><path class="cls-6" d="M430.38,142.15a6,6,0,0,0,4-2.19c1.89-2.5,1-6.07-.37-8.16s-4.29-4.53-7.6-3.68a6.36,6.36,0,0,0-4.52,4.77C421,137.44,426.06,142.51,430.38,142.15Z"/><path class="cls-1" d="M1481.31,419.51c-1-1.32-8.26-10.73-5.28-22,.57-2.16,2.93-11.08,11.11-13.76,5.18-1.7,12-.67,15.67,3.72,3.28,4,2.62,9,1.8,15.24a54.12,54.12,0,0,1-7.73,21.39"/><path class="cls-2" d="M1502.3,429.32c2.58-5.8,8.07-15.49,18.63-20.87,3.84-1.95,8.44-4.21,13-2.24,4.32,1.87,7,6.84,6.84,11.39-.16,5.35-4.13,8.82-6.55,10.92-10,8.78-24,7.6-28.55,7"/><path class="cls-3" d="M1505,443.06a64.23,64.23,0,0,1,22.76,8.24c7.57,4.57,8.89,7.65,9.36,9.38,1.25,4.5-.26,10.43-4.3,12.95-4.9,3.06-11.32-.28-15.12-2.25-10.82-5.62-15.72-16.11-17.72-21.46"/><path class="cls-1" d="M1491.85,449.7c2.07,5.44,3.5,10.11,4.47,13.59,3,10.66,2.52,13.72,2.13,15.45s-1.79,7.9-6.79,10-11.22-.81-14.33-4.64c-4-4.93-2.93-11.35-1.92-17.37a43.83,43.83,0,0,1,7.94-18.54"/><path class="cls-2" d="M1478.67,444.32A176.82,176.82,0,0,0,1463,457.39c-5,4.69-7.09,7.25-11.59,8.59-1,.31-9.59,2.87-14.08-2.13-3.95-4.42-1.67-11.3-1.48-11.84,1.07-3.06,3.35-6,9.2-9.39,10.43-6,21.68-7.26,29.82-7.22"/><path class="cls-3" d="M1474.57,430.59c-13.65.53-23-2.43-28.3-4.63-4.83-2-7.5-4-8.57-7-1.35-3.8.15-8.31,2.84-11,3.87-3.85,9.59-3.28,12.71-3,14.22,1.41,23.51,14.68,26,18.52"/><g class="cls-4"><path class="cls-5" d="M1490.58,453a21.12,21.12,0,0,1-8.87-1.91c-8-3.73-14.58-13.66-11.26-23.17,2.84-8.12,11.28-11.81,17.93-11.81a17.51,17.51,0,0,1,2.63.19c6.18.92,12.07,5.46,15.38,11.84,2.85,5.5,3.21,11.44,1,15.88-2.71,5.37-9.45,9-16.78,9Z"/><path d="M1488.38,416.64a17.8,17.8,0,0,1,2.55.18c12.1,1.81,21,17.12,16,27-2.75,5.46-9.45,8.71-16.34,8.71a20.55,20.55,0,0,1-8.66-1.86c-8-3.71-14.19-13.41-11-22.56,2.61-7.47,10.44-11.47,17.45-11.47m0-1c-6.82,0-15.48,3.8-18.4,12.14-3.42,9.78,3.32,20,11.52,23.8a21.64,21.64,0,0,0,9.08,1.95c7.63,0,14.39-3.63,17.23-9.26,2.34-4.65,2-10.6-1-16.33-3.38-6.52-9.41-11.16-15.75-12.11a18.36,18.36,0,0,0-2.7-.19Z"/></g><path class="cls-6" d="M1486.76,428.22a6,6,0,0,0-3.68,2.71c-1.54,2.73-.17,6.14,1.45,8s4.86,3.92,8,2.64a6.4,6.4,0,0,0,3.84-5.33C1496.73,431.64,1491,427.29,1486.76,428.22Z"/><path class="cls-1" d="M352.46,390.44c2.77-1.08,22.53-8.36,40.06,2.61,3.36,2.1,17.25,10.79,17.49,26.07.15,9.67-5.18,20.72-14.55,24.6-8.43,3.49-16.63-.28-26.77-5a96.06,96.06,0,0,1-32.21-24.36"/><path class="cls-2" d="M324.79,420.85c8.47,7.43,22,21.82,25.58,42.57,1.29,7.53,2.7,16.51-3,23.19-5.44,6.33-15.26,8.22-22.9,5.6-9-3.07-12.78-11.63-15.08-16.84-9.59-21.65-.26-44.65,3.13-52.09"/><path class="cls-3" d="M300.09,418.18a114.22,114.22,0,0,1-25.94,34.24c-11.72,10.44-17.63,11.05-20.82,10.95-8.29-.27-17.53-5.93-19.69-14.1-2.61-9.92,6.42-19,11.77-24.46,15.2-15.38,35.57-18.18,45.7-18.75"/><path class="cls-1" d="M295.73,392.43c-10.3.65-19,.62-25.39.42-19.61-.6-24.57-2.92-27.31-4.5-2.94-1.7-12.44-7.19-13.4-16.78S236.9,353,245,349.72c10.47-4.2,20.77,1,30.45,5.88a77.76,77.76,0,0,1,27.26,23.21"/><path class="cls-2" d="M311.79,372.92a313.32,313.32,0,0,0-14-33.37c-5.32-10.9-8.55-15.83-8.46-24.15,0-1.95.18-17.78,11-22.75,9.57-4.39,20,3.1,20.85,3.71,4.63,3.41,8.44,8.84,11.08,20.53,4.69,20.83.9,40.56-3.44,54.34"/><path class="cls-3" d="M337.22,373.19c6.27-23.42,16.22-37.78,22.72-45.53,6-7.14,10.65-10.64,16.35-10.87,7.15-.3,14,4.62,17.14,10.59,4.5,8.59.53,18-1.64,23.12-9.86,23.37-37.23,32.13-45.06,34.36"/><g class="cls-4"><path class="cls-5" d="M317.4,428.65c-8,0-15.14-2.57-20-7.23-11.4-11-10.68-33.24,1.51-46.66a38.38,38.38,0,0,1,27.54-12.34,28.56,28.56,0,0,1,17.15,5.49,30.16,30.16,0,0,1,11.46,19.19,35.58,35.58,0,0,1-2.69,21.28c-5.75,11.93-20.14,20.27-35,20.27Z"/><path d="M326.48,362.92a28,28,0,0,1,16.85,5.39C356,377.7,357.82,396,352,408.16c-6.08,12.61-20.95,20-34.55,20-7.49,0-14.6-2.24-19.62-7.09-11.15-10.76-10.44-32.78,1.53-46a37.94,37.94,0,0,1,27.17-12.17m0-1a38.9,38.9,0,0,0-27.91,12.5c-12.36,13.61-13.07,36.19-1.49,47.36,4.93,4.75,12.15,7.37,20.32,7.37,15,0,29.62-8.45,35.45-20.55A36.13,36.13,0,0,0,355.59,387a30.7,30.7,0,0,0-11.66-19.5,29.05,29.05,0,0,0-17.45-5.59Z"/></g><path class="cls-6" d="M334.82,395.1a10.7,10.7,0,0,0-2.66-7.67c-3.81-4-10.32-3.52-14.39-1.76s-9.19,6.17-8.69,12.22a11.34,11.34,0,0,0,7,9.31C323.79,410.19,334.17,402.77,334.82,395.1Z"/><rect class="cls-7" x="1692.49" width="27.26" height="97.6" transform="translate(3412.24 97.6) rotate(180)"/><rect class="cls-7" y="525.44" width="27.26" height="97.6" transform="translate(27.26 1148.47) rotate(180)"/><path class="cls-1" d="M1472.84,63.59c7.82,9,14.51,16.9,17.82,29.36,5.46,20.55-2,39.61-4.19,45.08-7.94,19.59-18.09,22.49-16.78,33.55,1.44,12.11,15.44,24,27.26,23.06,17.93-1.36,28.53-31.88,31.45-49.27C1536.37,98.1,1505,45,1463.4,29c-16.64-6.4-34.4-6.66-35.64-3.15C1426.24,30.16,1450.48,37.83,1472.84,63.59Z"/><path class="cls-2" d="M208.42,228.6c-20.81-17.12-58.11-22.14-78.63-9.07C104.08,235.91,111,276.68,97.53,278c-9.3.9-19.87-17.71-23.18-33.27-5.85-27.48,7.67-60.91,33.26-75.6,41.9-24.06,98.68,12.09,112.9,45.36,3.51,8.2,7.8,24.12,4,26.21C221.58,242.35,215.43,234.37,208.42,228.6Z"/><path class="cls-3" d="M1206,488.18c18.56,2.82,55.48,8.42,77.81-9.47,28.4-22.76,18.32-71.64,23.68-71.71,5.06-.07,21.07,43.5,1.35,81.18-1.41,2.69-20.81,38.34-59.54,43.3-52.26,6.7-92.52-48.53-88.62-54.8C1162.7,473.46,1176,483.63,1206,488.18Z"/><path class="cls-8" d="M169.66,200.82c-.15-.79,15.63-.64,23.72-10.16,9.12-10.74,4.66-29.31,5.64-29.37s-.93,17.87,8.28,26c9.56,8.41,28.44,1.26,28.62,2.26s-17.7.93-25.6,11.67c-7,9.54-3.2,23.54-4.9,23.72s-1-15.93-10.54-22.59S169.81,201.64,169.66,200.82Z"/><path class="cls-8" d="M1188.85,520.55c0,.53,10-1.85,16.48,3,7.33,5.49,7.19,17.89,7.82,17.78s-3.17-11.18,1.49-17.64c4.84-6.71,17.82-4.9,17.79-5.56s-11.34,2-17.89-3.69c-5.83-5-5.43-14.45-6.53-14.32s1.63,10.24-3.41,15.83S1188.83,520,1188.85,520.55Z"/><path class="cls-9" d="M1472.11,171c0,.64,12.2-2.26,20.14,3.67,9,6.7,8.77,21.85,9.54,21.72s-3.87-13.66,1.83-21.55c5.91-8.19,21.77-6,21.73-6.79s-13.85,2.39-21.86-4.51c-7.12-6.15-6.62-17.64-8-17.48s2,12.5-4.17,19.32S1472.09,170.38,1472.11,171Z"/></g></g></svg>