<svg xmlns="http://www.w3.org/2000/svg" viewBox="0 0 112.32 80.9"><defs><style>.cls-1{fill:#ffad3f;}.cls-1,.cls-2{stroke:#000;stroke-linecap:round;stroke-linejoin:round;}.cls-2{fill:#ff0;stroke-width:2px;}</style></defs><g id="Calque_2" data-name="Calque 2"><g id="LOGOS"><path class="cls-1" d="M92.62,46.78C78.46,35.14,53.09,31.72,39.13,40.61,21.64,51.76,26.38,79.49,17.19,80.38c-6.32.62-13.52-12-15.77-22.63-4-18.69,5.22-41.42,22.63-51.42C52.55-10,91.17,14.55,100.84,37.18c2.39,5.59,5.31,16.41,2.75,17.83C101.57,56.13,97.39,50.71,92.62,46.78Z"/><path class="cls-2" d="M66.25,27.89c-.1-.54,10.63-.44,16.13-6.92C88.59,13.67,85.56,1,86.23,1s-.64,12.15,5.63,17.67c6.5,5.72,19.34.85,19.46,1.54s-12,.63-17.41,7.93c-4.78,6.5-2.18,16-3.33,16.14s-.72-10.84-7.17-15.37S66.36,28.45,66.25,27.89Z"/></g></g></svg>