<svg xmlns="http://www.w3.org/2000/svg" viewBox="0 0 159.01 135.85"><defs><style>.cls-1{fill:#ff6aa4;}.cls-1,.cls-2{stroke:#000;stroke-linecap:round;stroke-linejoin:round;}.cls-2{fill:#ff0;stroke-width:2px;}</style></defs><g id="Calque_2" data-name="Calque 2"><g id="LOGOS"><path class="cls-1" d="M46.09,81.69c18.56,2.81,55.48,8.41,77.8-9.48C152.3,49.45,142.21.57,147.57.5c5.07-.07,21.08,43.51,1.36,81.19C147.52,84.37,128.12,120,89.39,125,37.13,131.68-3.14,76.45.76,70.18,2.76,67,16.1,77.14,46.09,81.69Z"/><path class="cls-2" d="M28.91,114.06c0,.52,10-1.85,16.49,3,7.32,5.48,7.18,17.88,7.81,17.78S50,123.67,54.7,117.2c4.84-6.7,17.83-4.9,17.79-5.56s-11.33,2-17.89-3.69c-5.83-5-5.42-14.44-6.52-14.31s1.63,10.24-3.41,15.82S28.89,113.52,28.91,114.06Z"/></g></g></svg>